# Blender 4.1.1
# www.blender.org
mtllib spiky_ball.mtl
o Icosphere
v 0.000000 -1.000000 0.000000
v 0.723607 -0.447220 0.525725
v -0.276388 -0.447220 0.850649
v -0.894426 -0.447216 0.000000
v -0.276388 -0.447220 -0.850649
v 0.723607 -0.447220 -0.525725
v 0.407236 0.739554 1.432700
v -0.723607 0.447220 0.525725
v -0.723607 0.447220 -0.525725
v 0.276388 0.447220 -0.850649
v 0.894426 0.447216 0.000000
v 0.000000 1.000000 0.000000
v -0.162456 -0.850654 0.499995
v 0.425323 -0.850654 0.309011
v 0.262869 -0.525738 0.809012
v 0.850648 -0.525736 0.000000
v 0.425323 -0.850654 -0.309011
v -0.525730 -0.850652 0.000000
v -0.688189 -0.525736 0.499997
v -0.162456 -0.850654 -0.499995
v -0.688189 -0.525736 -0.499997
v 0.262869 -0.525738 -0.809012
v 0.951058 0.000000 0.309013
v 0.951058 0.000000 -0.309013
v 0.000000 0.000000 1.000000
v 0.587786 0.000000 0.809017
v -0.951058 0.000000 0.309013
v -0.587786 0.000000 0.809017
v -0.587786 0.000000 -0.809017
v -0.951058 0.000000 -0.309013
v 0.587786 0.000000 -0.809017
v -0.059483 -0.015639 -1.692377
v 0.688189 0.525736 0.499997
v -0.262869 0.525738 0.809012
v -0.850648 0.525736 0.000000
v -0.262869 0.525738 -0.809012
v 0.688189 0.525736 -0.499997
v 0.162456 0.850654 0.499995
v 0.828284 1.420804 -0.003739
v -0.425323 0.850654 0.309011
v -0.425323 0.850654 -0.309011
v 0.162456 0.850654 -0.499995
v -0.081228 -0.925327 0.249998
v 0.574465 -0.648937 0.417368
v -0.006760 -0.486479 0.829830
v 0.787128 -0.486478 0.262863
v 0.910580 -1.111458 -0.708523
v -0.262865 -0.925326 0.000000
v -0.791308 -0.486476 0.249998
v -0.081228 -0.925327 -0.249998
v -0.482289 -0.486478 -0.675323
v 0.493238 -0.486479 -0.667368
v 0.837333 -0.223610 0.417369
v 0.922742 0.223608 -0.154506
v -0.138194 -0.223610 0.925325
v 0.432087 0.223610 0.829833
v -0.922742 -0.223608 0.154506
v -0.655696 0.223610 0.667371
v -0.432087 -0.223610 -0.829833
v -0.837333 0.223610 -0.417369
v 0.655696 -0.223610 -0.667371
v 0.138194 0.223610 -0.925325
v 0.482289 0.486478 0.675323
v -0.493238 0.486479 0.667368
v -0.787128 0.486478 -0.262863
v 0.006760 0.486479 -0.829830
v 0.791308 0.486476 -0.249998
v 0.219422 0.648937 0.675322
v 0.262865 0.925326 0.000000
v -0.574465 0.648937 0.417368
v -1.029546 1.080181 -0.708523
v 0.311041 1.080181 -1.144114
v -0.219422 -0.648937 0.675322
v 0.212661 -0.925327 0.154506
v 0.493238 -0.486479 0.667368
v 0.787128 -0.486478 -0.262863
v 0.212661 -0.925327 -0.154506
v -0.710078 -0.648934 0.000000
v -0.482289 -0.486478 0.675323
v -0.430007 -1.111459 -1.144114
v -1.395715 -0.837121 -0.425896
v -0.006760 -0.486479 -0.829830
v 0.922742 0.223608 0.154506
v 0.837333 -0.223610 -0.417369
v 0.138194 0.223610 0.925325
v 0.655696 -0.223610 0.667371
v -0.837333 0.223610 0.417369
v -0.432087 -0.223610 0.829833
v -0.655696 0.223610 -0.667371
v -0.922742 -0.223608 -0.154506
v 0.432087 0.223610 -0.829833
v -0.138194 -0.223610 -0.925325
v 0.791308 0.486476 0.249998
v 0.006760 0.486479 0.829830
v -0.787128 0.486478 0.262863
v -0.493238 0.486479 -0.667368
v 0.482289 0.486478 -0.675323
v 0.081228 0.925327 0.249998
v 0.710078 0.648934 0.000000
v -0.212661 0.925327 0.154506
v -0.212661 0.925327 -0.154506
v 0.081228 0.925327 -0.249998
v 0.344093 0.850653 -0.249998
v 0.606960 0.688194 -0.249998
v 0.425322 0.688195 -0.499996
v -0.131434 0.850654 -0.404503
v -0.050207 0.688196 -0.654503
v -0.344096 0.688196 -0.559012
v -0.425323 0.850654 0.000000
v -0.637985 0.688195 -0.154506
v -0.637985 0.688195 0.154506
v -0.281427 1.420808 0.679321
v -0.344096 0.688196 0.559012
v -0.050207 0.688196 0.654503
v 0.344093 0.850653 0.249998
v 0.425322 0.688195 0.499996
v 0.606960 0.688194 0.249998
v 0.819624 0.262868 -0.404505
v 1.239792 -0.015639 -0.947712
v 0.637987 0.262868 -0.654507
v -0.131434 0.262869 -0.904506
v -0.293893 0.000000 -0.904508
v -0.425327 0.262869 -0.809014
v -0.900853 0.262868 -0.154506
v -0.951058 0.000000 0.000000
v -1.580697 0.428250 0.257166
v -0.777707 0.428251 1.362393
v -0.293893 0.000000 0.904508
v -0.131434 0.262869 0.904506
v 0.637987 0.262868 0.654507
v 0.769422 0.000000 0.559015
v 1.324565 0.428250 0.679323
v 0.293893 0.000000 -0.904508
v 0.425327 -0.262869 -0.809014
v 0.131434 -0.262869 -0.904506
v -0.769422 0.000000 -0.559015
v -0.637987 -0.262868 -0.654507
v -0.819624 -0.262868 -0.404505
v -0.769422 0.000000 0.559015
v -0.819624 -0.262868 0.404505
v -0.637987 -0.262868 0.654507
v 0.293893 0.000000 0.904508
v 0.131434 -0.262869 0.904506
v 0.658741 -0.459529 1.362393
v 0.951058 0.000000 0.000000
v 1.461731 -0.459528 0.257166
v 0.900853 -0.262868 -0.154506
v 0.344096 -0.688196 -0.559012
v 0.131434 -0.850654 -0.404503
v 0.050207 -0.688196 -0.654503
v -0.425322 -0.688195 -0.499996
v -0.344093 -0.850653 -0.249998
v -0.606960 -0.688194 -0.249998
v -0.606960 -0.688194 0.249998
v -0.344093 -0.850653 0.249998
v -0.777699 -1.177752 0.840574
v 0.637985 -0.688195 -0.154506
v 0.637985 -0.688195 0.154506
v 0.658733 -1.452086 -0.003739
v 0.050207 -0.688196 0.654503
v 0.131434 -0.850654 0.404503
v 0.344096 -0.688196 0.559012
vn 0.1024 -0.9435 0.3151
vn 0.7002 -0.6617 0.2680
vn -0.2680 -0.9435 0.1947
vn -0.2680 -0.9435 -0.1947
vn 0.1024 -0.9435 -0.3151
vn 0.9050 -0.3304 0.2680
vn 0.0247 -0.3304 0.9435
vn -0.8897 -0.3304 0.3151
vn -0.5746 -0.3304 -0.7488
vn 0.5346 -0.3304 -0.7779
vn 0.8026 -0.1256 0.5831
vn -0.3066 -0.1256 0.9435
vn -0.9921 -0.1256 -0.0000
vn -0.3066 -0.1256 -0.9435
vn 0.8026 -0.1256 -0.5831
vn 0.5121 0.8286 -0.2261
vn -0.4713 0.6617 0.5831
vn -0.8745 -0.4637 -0.1421
vn -0.1295 -0.4112 -0.9023
vn 0.7240 0.6617 -0.1947
vn -0.6050 0.6874 -0.4019
vn 0.1661 0.2687 -0.9488
vn 0.4089 0.6617 -0.6284
vn -0.1024 0.9435 -0.3151
vn -0.1876 0.7947 -0.5773
vn -0.4713 0.6617 -0.5831
vn -0.3313 0.9435 -0.0000
vn -0.6071 0.7947 -0.0000
vn -0.7002 0.6617 0.2680
vn -0.6117 0.5337 -0.5840
vn -0.9453 0.0275 0.3250
vn 0.0385 0.6617 0.7488
vn 0.2680 0.9435 0.1947
vn 0.4911 0.7947 0.3568
vn 0.7240 0.6617 0.1947
vn 0.8897 0.3304 -0.3151
vn 0.7848 0.5167 0.3421
vn 0.5746 0.3304 -0.7488
vn 0.1120 0.9401 -0.3221
vn -0.8226 0.5084 -0.2548
vn -0.5346 0.3304 -0.7779
vn -0.9050 0.3304 -0.2680
vn -0.9822 0.1876 -0.0000
vn -0.2792 -0.3000 0.9122
vn -0.9417 -0.3293 -0.0684
vn -0.1825 -0.8069 0.5618
vn -0.0247 0.3304 0.9435
vn 0.5746 0.3304 0.7488
vn 0.7947 0.1876 0.5773
vn 0.8131 -0.2577 -0.5220
vn 0.3066 0.1256 -0.9435
vn 0.3035 -0.1876 -0.9342
vn 0.0247 -0.3304 -0.9435
vn -0.8026 0.1256 -0.5831
vn -0.7947 -0.1876 -0.5773
vn -0.2057 0.2417 -0.9483
vn -0.8026 0.1256 0.5831
vn -0.7947 -0.1876 0.5773
vn -0.5746 -0.3304 0.7488
vn 0.3066 0.1256 0.9435
vn 0.3035 -0.1876 0.9342
vn 0.1671 -0.9859 -0.0016
vn 0.9921 0.1256 -0.0000
vn 0.6689 0.7434 -0.0000
vn 0.9050 -0.3304 -0.2680
vn -0.6210 -0.7339 -0.2752
vn 0.1876 -0.7947 -0.5773
vn 0.6299 -0.7749 0.0521
vn -0.4582 -0.7413 0.4905
vn -0.4911 -0.7947 -0.3568
vn -0.7240 -0.6617 -0.1947
vn -0.7240 -0.6617 0.1947
vn -0.4911 -0.7947 0.3568
vn 0.6003 -0.4213 0.6798
vn 0.7002 -0.6617 -0.2680
vn 0.6071 -0.7947 -0.0000
vn -0.3642 -0.5370 0.7609
vn -0.0385 -0.6617 0.7488
vn 0.1876 -0.7947 0.5773
vn 0.4713 -0.6617 0.5831
vn -0.3684 -0.5305 -0.7635
vn -0.7631 -0.6462 -0.0000
vn 0.3313 -0.9435 -0.0000
vn 0.6462 -0.1308 -0.7519
vn 0.9996 0.0272 -0.0000
vn 0.6488 -0.1374 0.7485
vn 0.9331 0.3119 -0.1789
vn 0.7727 -0.2603 0.5790
vn 0.1170 -0.7606 0.6386
vn -0.6324 0.4251 0.6476
vn 0.1141 0.1846 0.9762
vn -0.4089 -0.6617 0.6284
vn -0.9551 -0.0231 -0.2953
vn -0.3992 -0.6459 -0.6508
vn 0.3433 -0.9055 -0.2494
vn 0.2746 -0.7631 -0.5851
vn 0.1364 -0.9685 0.2084
vn -0.4120 -0.3766 0.8297
vn -0.6313 0.4309 -0.6449
vn -0.9778 -0.1718 0.1200
vn -0.4089 -0.6617 -0.6284
vn -0.0385 -0.6617 -0.7488
vn 0.7918 -0.2577 -0.5538
vn 0.1257 0.3765 -0.9179
vn 0.4460 0.3520 -0.8229
vn -0.3861 -0.1985 -0.9009
vn 0.4713 -0.6617 -0.5831
vn 0.9822 -0.1876 -0.0000
vn 0.6306 0.3002 -0.7157
vn 0.3783 -0.5217 -0.7647
vn 0.9666 0.2438 0.0785
vn 0.8369 -0.5172 -0.1792
vn 0.5346 -0.3304 0.7779
vn 0.1985 0.7664 0.6110
vn -0.5431 0.3357 0.7696
vn -0.6611 -0.5252 0.5358
vn 0.2082 -0.7388 0.6409
vn -0.8897 -0.3304 -0.3151
vn -0.6484 0.6643 -0.3718
vn -0.7445 0.3131 0.5896
vn -0.1182 -0.9553 -0.2711
vn 0.7975 -0.4929 -0.3479
vn 0.7809 0.5102 -0.3604
vn 0.1736 0.9814 -0.0825
vn 0.5703 0.5170 -0.6383
vn 0.8897 0.3304 0.3151
vn -0.1562 0.5225 0.8382
vn 0.0434 -0.3219 0.9458
vn 0.5144 -0.7718 0.3737
vn 0.9849 -0.1093 0.1341
vn -0.7843 -0.1760 0.5949
vn 0.5788 0.5181 0.6297
vn 0.4967 -0.3069 0.8119
vn -0.3035 0.1876 0.9342
vn -0.5346 0.3304 0.7779
vn -0.8139 0.5030 -0.2910
vn -0.1746 0.9846 0.0110
vn -0.0734 0.9836 0.1646
vn -0.0438 0.5124 0.8576
vn -0.9050 0.3304 0.2680
vn -0.3444 0.5237 -0.7792
vn -0.5462 -0.3445 -0.7636
vn -0.5624 -0.8269 -0.0000
vn -0.3035 0.1876 -0.9342
vn -0.0247 0.3304 -0.9435
vn 0.7947 0.1876 -0.5773
vn 0.3149 0.9212 -0.2288
vn -0.1653 0.5230 -0.8361
vn 0.9079 -0.1371 0.3960
vn 0.1706 0.2761 0.9459
vn -0.6020 0.6901 0.4017
vn -0.5841 0.8102 0.0479
vn 0.5138 0.1334 0.8475
vn -0.3065 -0.1287 0.9431
vn -0.1876 0.7947 0.5773
vn -0.1024 0.9435 0.3151
vn 0.2131 0.7242 -0.6558
vn 0.7773 0.6258 -0.0656
vn 0.5217 0.7828 -0.3392
vn 0.3362 0.2406 -0.9106
vn -0.4176 -0.4326 -0.7991
vn 0.4839 0.7831 0.3907
vn 0.9616 0.2746 -0.0035
vn 0.6451 -0.3502 -0.6792
vn 0.4911 0.7947 -0.3568
vn 0.2680 0.9435 -0.1947
vn 0.9072 -0.1409 -0.3963
vn -0.6545 0.7472 0.1153
vn -0.8550 0.1809 -0.4860
vn 0.0385 0.6617 -0.7488
vn -0.1264 0.7655 0.6309
vn -0.7328 0.1910 0.6531
vn -0.7002 0.6617 -0.2680
vn 0.4089 0.6617 0.6284
vn 0.7531 -0.5546 0.3540
vn 0.2510 -0.9507 -0.1823
vn -0.1846 -0.5653 -0.8040
vn -0.8086 -0.5416 -0.2298
vn 0.3333 0.2684 0.9038
vn 0.0276 -0.5104 0.8595
vn 0.0407 -0.9867 0.1572
vt 0.181819 0.000000
vt 0.204546 0.039365
vt 0.159092 0.039365
vt 0.272728 0.157461
vt 0.295455 0.118096
vt 0.318182 0.157461
vt 0.909091 0.000000
vt 0.931818 0.039365
vt 0.886364 0.039365
vt 0.727273 0.000000
vt 0.750000 0.039365
vt 0.704546 0.039365
vt 0.545455 0.000000
vt 0.568182 0.039365
vt 0.522728 0.039365
vt 0.295455 0.196826
vt 0.090910 0.157461
vt 0.136364 0.157461
vt 0.113637 0.196826
vt 0.818182 0.157461
vt 0.863636 0.157461
vt 0.840909 0.196826
vt 0.636364 0.157461
vt 0.681818 0.157461
vt 0.659091 0.196826
vt 0.454546 0.157461
vt 0.500000 0.157461
vt 0.477273 0.196826
vt 0.250001 0.196826
vt 0.068182 0.196826
vt 0.795455 0.196826
vt 0.613637 0.196826
vt 0.431819 0.196826
vt 0.181819 0.314921
vt 0.227273 0.314921
vt 0.204546 0.354286
vt 0.000000 0.314921
vt 0.045455 0.314921
vt 0.022728 0.354286
vt 0.727273 0.314921
vt 0.772727 0.314921
vt 0.750000 0.354286
vt 0.545455 0.314921
vt 0.590909 0.314921
vt 0.568182 0.354286
vt 0.363637 0.314921
vt 0.409091 0.314921
vt 0.386364 0.354286
vt 0.409092 0.393651
vt 0.454546 0.393651
vt 0.431819 0.433017
vt 0.431819 0.354286
vt 0.454546 0.314921
vt 0.500000 0.314921
vt 0.477273 0.354286
vt 0.590909 0.393651
vt 0.636364 0.393651
vt 0.613637 0.433017
vt 0.613637 0.354286
vt 0.636364 0.314921
vt 0.681818 0.314921
vt 0.659091 0.354286
vt 0.772727 0.393651
vt 0.818182 0.393651
vt 0.795455 0.433017
vt 0.795455 0.354286
vt 0.818182 0.314921
vt 0.863636 0.314921
vt 0.840909 0.354286
vt 0.045455 0.393651
vt 0.090910 0.393651
vt 0.068182 0.433017
vt 0.068182 0.354286
vt 0.090910 0.314921
vt 0.136364 0.314921
vt 0.113637 0.354286
vt 0.227273 0.393651
vt 0.272728 0.393651
vt 0.250001 0.433017
vt 0.250001 0.354286
vt 0.272728 0.314921
vt 0.318182 0.314921
vt 0.295455 0.354286
vt 0.409092 0.236191
vt 0.431819 0.275556
vt 0.386364 0.275556
vt 0.454546 0.236191
vt 0.500000 0.236191
vt 0.522728 0.275556
vt 0.477273 0.275556
vt 0.590909 0.236191
vt 0.613637 0.275556
vt 0.568182 0.275556
vt 0.636364 0.236191
vt 0.681818 0.236191
vt 0.704546 0.275556
vt 0.659091 0.275556
vt 0.772727 0.236191
vt 0.795455 0.275556
vt 0.750000 0.275556
vt 0.818182 0.236191
vt 0.863636 0.236191
vt 0.886364 0.275556
vt 0.840909 0.275556
vt 0.045455 0.236191
vt 0.068182 0.275556
vt 0.022728 0.275556
vt 0.090910 0.236191
vt 0.136365 0.236191
vt 0.159092 0.275556
vt 0.113637 0.275556
vt 0.227273 0.236191
vt 0.250001 0.275556
vt 0.204546 0.275556
vt 0.272728 0.236191
vt 0.318182 0.236191
vt 0.340910 0.275556
vt 0.295455 0.275556
vt 0.545455 0.236191
vt 0.522728 0.196826
vt 0.545455 0.157461
vt 0.590909 0.157461
vt 0.568182 0.196826
vt 0.727273 0.236191
vt 0.704546 0.196826
vt 0.727273 0.157461
vt 0.772727 0.157461
vt 0.750000 0.196826
vt 0.909091 0.236191
vt 0.886364 0.196826
vt 0.909091 0.157461
vt 0.954545 0.157461
vt 0.931818 0.196826
vt 0.181819 0.236191
vt 0.159092 0.196826
vt 0.181819 0.157461
vt 0.227273 0.157461
vt 0.204546 0.196826
vt 0.363637 0.236191
vt 0.340910 0.196826
vt 0.363637 0.157461
vt 0.409092 0.157461
vt 0.386364 0.196826
vt 0.500000 0.078731
vt 0.522728 0.118096
vt 0.477273 0.118096
vt 0.545455 0.078731
vt 0.590909 0.078731
vt 0.613637 0.118096
vt 0.568182 0.118096
vt 0.681818 0.078731
vt 0.704546 0.118096
vt 0.659091 0.118096
vt 0.727273 0.078731
vt 0.772727 0.078731
vt 0.795455 0.118096
vt 0.750000 0.118096
vt 0.863636 0.078731
vt 0.886364 0.118096
vt 0.840909 0.118096
vt 0.909091 0.078731
vt 0.954545 0.078731
vt 0.977273 0.118096
vt 0.931818 0.118096
vt 0.386364 0.118096
vt 0.340910 0.118096
vt 0.318182 0.078731
vt 0.340910 0.039365
vt 0.363637 0.078731
vt 0.136365 0.078731
vt 0.159092 0.118096
vt 0.113637 0.118096
vt 0.181819 0.078731
vt 0.227273 0.078731
vt 0.250001 0.118096
vt 0.204546 0.118096
vt 0.386364 0.039365
vt 0.409092 0.078731
vt 0.363637 0.000000
vt 0.431819 0.118096
vt 1.000000 0.157461
vt 0.977273 0.196826
vt 0.954545 0.236191
vt 0.931818 0.275556
vt 0.909091 0.314921
vt 0.340910 0.354286
vt 0.318182 0.393651
vt 0.295455 0.433017
vt 0.272728 0.472382
vt 0.159092 0.354286
vt 0.136365 0.393651
vt 0.113637 0.433017
vt 0.090910 0.472382
vt 0.886364 0.354286
vt 0.863636 0.393651
vt 0.840909 0.433017
vt 0.818182 0.472382
vt 0.704546 0.354286
vt 0.681818 0.393651
vt 0.659091 0.433017
vt 0.636364 0.472382
vt 0.522728 0.354286
vt 0.500000 0.393651
vt 0.477273 0.433017
vt 0.454546 0.472382
s 0
f 1/1/1 74/2/1 43/3/1
f 2/4/2 44/5/2 46/6/2
f 1/7/3 43/8/3 48/9/3
f 1/10/4 48/11/4 50/12/4
f 1/13/5 50/14/5 77/15/5
f 2/4/6 46/6/6 53/16/6
f 3/17/7 45/18/7 55/19/7
f 4/20/8 49/21/8 57/22/8
f 5/23/9 51/24/9 59/25/9
f 6/26/10 52/27/10 61/28/10
f 2/4/11 53/16/11 86/29/11
f 3/17/12 55/19/12 88/30/12
f 4/20/13 57/22/13 90/31/13
f 5/23/14 59/25/14 92/32/14
f 6/26/15 61/28/15 84/33/15
f 7/34/16 63/35/16 68/36/16
f 8/37/17 64/38/17 70/39/17
f 9/40/18 65/41/18 71/42/18
f 10/43/19 66/44/19 72/45/19
f 11/46/20 67/47/20 99/48/20
f 39/49/21 103/50/21 69/51/21
f 39/49/22 104/52/22 103/50/22
f 37/53/23 97/54/23 105/55/23
f 42/56/24 106/57/24 102/58/24
f 42/56/25 107/59/25 106/57/25
f 36/60/26 96/61/26 108/62/26
f 41/63/27 109/64/27 101/65/27
f 41/63/28 110/66/28 109/64/28
f 35/67/29 95/68/29 111/69/29
f 40/70/30 112/71/30 100/72/30
f 40/70/31 113/73/31 112/71/31
f 34/74/32 94/75/32 114/76/32
f 38/77/33 115/78/33 98/79/33
f 38/77/34 116/80/34 115/78/34
f 33/81/35 93/82/35 117/83/35
f 24/84/36 118/85/36 54/86/36
f 24/84/37 119/87/37 118/85/37
f 31/88/38 91/89/38 120/90/38
f 32/91/39 121/92/39 62/93/39
f 32/91/40 122/94/40 121/92/40
f 29/95/41 89/96/41 123/97/41
f 30/98/42 124/99/42 60/100/42
f 30/98/43 125/101/43 124/99/43
f 27/102/44 87/103/44 126/104/44
f 28/105/45 127/106/45 58/107/45
f 28/105/46 128/108/46 127/106/46
f 25/109/47 85/110/47 129/111/47
f 26/112/48 130/113/48 56/114/48
f 26/112/49 131/115/49 130/113/49
f 23/116/50 83/117/50 132/118/50
f 31/88/51 133/119/51 91/89/51
f 31/88/52 134/120/52 133/119/52
f 22/121/53 82/122/53 135/123/53
f 29/95/54 136/124/54 89/96/54
f 29/95/55 137/125/55 136/124/55
f 21/126/56 81/127/56 138/128/56
f 27/102/57 139/129/57 87/103/57
f 27/102/58 140/130/58 139/129/58
f 19/131/59 79/132/59 141/133/59
f 25/109/60 142/134/60 85/110/60
f 25/109/61 143/135/61 142/134/61
f 15/136/62 75/137/62 144/138/62
f 23/116/63 145/139/63 83/117/63
f 23/116/64 146/140/64 145/139/64
f 16/141/65 76/142/65 147/143/65
f 17/144/66 148/145/66 47/146/66
f 17/144/67 149/147/67 148/145/67
f 20/148/68 80/149/68 150/150/68
f 20/151/69 151/152/69 80/153/69
f 20/151/70 152/154/70 151/152/70
f 18/155/71 78/156/71 153/157/71
f 18/158/72 154/159/72 78/160/72
f 18/158/73 155/161/73 154/159/73
f 13/162/74 73/163/74 156/164/74
f 16/141/75 157/165/75 76/142/75
f 16/141/76 158/166/76 157/165/76
f 14/167/77 74/168/77 159/169/77
f 13/170/78 160/171/78 73/172/78
f 13/170/79 161/173/79 160/171/79
f 14/174/80 44/175/80 162/176/80
f 162/176/80 75/137/80 15/136/80
f 162/176/80 44/175/80 75/137/80
f 44/175/80 2/4/80 75/137/80
f 160/171/79 162/176/79 15/136/79
f 160/171/79 161/173/79 162/176/79
f 161/173/79 14/174/79 162/176/79
f 73/172/78 45/18/78 3/17/78
f 73/172/78 160/171/78 45/18/78
f 160/171/78 15/136/78 45/18/78
f 159/169/81 77/177/81 17/178/81
f 159/169/82 74/168/82 77/177/82
f 74/168/83 1/179/83 77/177/83
f 157/165/84 159/169/84 17/178/84
f 157/165/85 158/166/85 159/169/85
f 158/166/86 14/167/86 159/169/86
f 76/142/87 47/180/87 6/26/87
f 76/142/88 157/165/88 47/180/88
f 157/165/89 17/178/89 47/180/89
f 156/164/90 79/132/90 19/131/90
f 156/164/91 73/163/91 79/132/91
f 73/163/92 3/181/92 79/132/92
f 154/159/93 156/164/93 19/131/93
f 154/159/94 155/161/94 156/164/94
f 155/161/95 13/162/95 156/164/95
f 78/160/72 49/21/72 4/20/72
f 78/160/72 154/159/72 49/21/72
f 154/159/72 19/131/72 49/21/72
f 153/157/96 81/127/96 21/126/96
f 153/157/97 78/156/97 81/127/97
f 78/156/98 4/20/98 81/127/98
f 151/152/70 153/157/70 21/126/70
f 151/152/70 152/154/70 153/157/70
f 152/154/70 18/155/70 153/157/70
f 80/153/99 51/24/99 5/23/99
f 80/153/100 151/152/100 51/24/100
f 151/152/101 21/126/101 51/24/101
f 150/150/102 82/122/102 22/121/102
f 150/150/103 80/149/103 82/122/103
f 80/149/104 5/23/104 82/122/104
f 148/145/67 150/150/67 22/121/67
f 148/145/67 149/147/67 150/150/67
f 149/147/67 20/148/67 150/150/67
f 47/146/105 52/27/105 6/26/105
f 47/146/106 148/145/106 52/27/106
f 148/145/107 22/121/107 52/27/107
f 147/143/65 84/33/65 24/84/65
f 147/143/65 76/142/65 84/33/65
f 76/142/65 6/26/65 84/33/65
f 145/139/108 147/143/108 24/84/108
f 145/139/109 146/140/109 147/143/109
f 146/140/110 16/141/110 147/143/110
f 83/117/63 54/86/63 11/46/63
f 83/117/63 145/139/63 54/86/63
f 145/139/63 24/84/63 54/86/63
f 144/138/111 86/29/111 26/112/111
f 144/138/112 75/137/112 86/29/112
f 75/137/113 2/4/113 86/29/113
f 142/134/114 144/138/114 26/112/114
f 142/134/115 143/135/115 144/138/115
f 143/135/116 15/136/116 144/138/116
f 85/110/117 56/114/117 7/34/117
f 85/110/60 142/134/60 56/114/60
f 142/134/60 26/112/60 56/114/60
f 141/133/59 88/182/59 28/183/59
f 141/133/59 79/132/59 88/182/59
f 79/132/59 3/181/59 88/182/59
f 139/129/58 141/133/58 28/183/58
f 139/129/58 140/130/58 141/133/58
f 140/130/58 19/131/58 141/133/58
f 87/103/57 58/184/57 8/185/57
f 87/103/57 139/129/57 58/184/57
f 139/129/57 28/183/57 58/184/57
f 138/128/118 90/31/118 30/98/118
f 138/128/119 81/127/119 90/31/119
f 81/127/120 4/20/120 90/31/120
f 136/124/55 138/128/55 30/98/55
f 136/124/55 137/125/55 138/128/55
f 137/125/55 21/126/55 138/128/55
f 89/96/54 60/100/54 9/40/54
f 89/96/54 136/124/54 60/100/54
f 136/124/54 30/98/54 60/100/54
f 135/123/121 92/32/121 32/91/121
f 135/123/53 82/122/53 92/32/53
f 82/122/53 5/23/53 92/32/53
f 133/119/122 135/123/122 32/91/122
f 133/119/52 134/120/52 135/123/52
f 134/120/52 22/121/52 135/123/52
f 91/89/51 62/93/51 10/43/51
f 91/89/51 133/119/51 62/93/51
f 133/119/123 32/91/123 62/93/123
f 132/118/124 93/82/124 33/81/124
f 132/118/125 83/117/125 93/82/125
f 83/117/126 11/46/126 93/82/126
f 130/113/127 132/118/127 33/81/127
f 130/113/128 131/115/128 132/118/128
f 131/115/129 23/116/129 132/118/129
f 56/114/130 63/35/130 7/34/130
f 56/114/48 130/113/48 63/35/48
f 130/113/48 33/81/48 63/35/48
f 129/111/47 94/75/47 34/74/47
f 129/111/47 85/110/47 94/75/47
f 85/110/131 7/34/131 94/75/131
f 127/106/132 129/111/132 34/74/132
f 127/106/133 128/108/133 129/111/133
f 128/108/134 25/109/134 129/111/134
f 58/107/135 64/38/135 8/37/135
f 58/107/136 127/106/136 64/38/136
f 127/106/137 34/74/137 64/38/137
f 126/104/138 95/68/138 35/67/138
f 126/104/139 87/103/139 95/68/139
f 87/103/140 8/185/140 95/68/140
f 124/99/141 126/104/141 35/67/141
f 124/99/142 125/101/142 126/104/142
f 125/101/143 27/102/143 126/104/143
f 60/100/42 65/41/42 9/40/42
f 60/100/42 124/99/42 65/41/42
f 124/99/42 35/67/42 65/41/42
f 123/97/41 96/61/41 36/60/41
f 123/97/41 89/96/41 96/61/41
f 89/96/41 9/40/41 96/61/41
f 121/92/144 123/97/144 36/60/144
f 121/92/144 122/94/144 123/97/144
f 122/94/144 29/95/144 123/97/144
f 62/93/145 66/44/145 10/43/145
f 62/93/145 121/92/145 66/44/145
f 121/92/145 36/60/145 66/44/145
f 120/90/38 97/54/38 37/53/38
f 120/90/38 91/89/38 97/54/38
f 91/89/38 10/43/38 97/54/38
f 118/85/146 120/90/146 37/53/146
f 118/85/147 119/87/147 120/90/147
f 119/87/148 31/88/148 120/90/148
f 54/86/36 67/47/36 11/46/36
f 54/86/36 118/85/36 67/47/36
f 118/85/36 37/53/36 67/47/36
f 117/83/149 99/186/149 39/187/149
f 117/83/35 93/82/35 99/186/35
f 93/82/35 11/46/35 99/186/35
f 115/78/150 117/83/150 39/187/150
f 115/78/34 116/80/34 117/83/34
f 116/80/34 33/81/34 117/83/34
f 98/79/33 69/188/33 12/189/33
f 98/79/33 115/78/33 69/188/33
f 115/78/151 39/187/151 69/188/151
f 114/76/32 68/190/32 38/191/32
f 114/76/32 94/75/32 68/190/32
f 94/75/152 7/34/152 68/190/152
f 112/71/153 114/76/153 38/191/153
f 112/71/154 113/73/154 114/76/154
f 113/73/155 34/74/155 114/76/155
f 100/72/156 98/192/156 12/193/156
f 100/72/157 112/71/157 98/192/157
f 112/71/158 38/191/158 98/192/158
f 111/69/29 70/194/29 40/195/29
f 111/69/29 95/68/29 70/194/29
f 95/68/29 8/185/29 70/194/29
f 109/64/28 111/69/28 40/195/28
f 109/64/28 110/66/28 111/69/28
f 110/66/28 35/67/28 111/69/28
f 101/65/27 100/196/27 12/197/27
f 101/65/27 109/64/27 100/196/27
f 109/64/27 40/195/27 100/196/27
f 108/62/159 71/198/159 41/199/159
f 108/62/160 96/61/160 71/198/160
f 96/61/161 9/40/161 71/198/161
f 106/57/25 108/62/25 41/199/25
f 106/57/25 107/59/25 108/62/25
f 107/59/25 36/60/25 108/62/25
f 102/58/24 101/200/24 12/201/24
f 102/58/24 106/57/24 101/200/24
f 106/57/24 41/199/24 101/200/24
f 105/55/162 72/202/162 42/203/162
f 105/55/163 97/54/163 72/202/163
f 97/54/164 10/43/164 72/202/164
f 103/50/165 105/55/165 42/203/165
f 103/50/165 104/52/165 105/55/165
f 104/52/165 37/53/165 105/55/165
f 69/51/166 102/204/166 12/205/166
f 69/51/166 103/50/166 102/204/166
f 103/50/166 42/203/166 102/204/166
f 99/48/167 104/52/167 39/49/167
f 99/48/20 67/47/20 104/52/20
f 67/47/20 37/53/20 104/52/20
f 72/45/168 107/59/168 42/56/168
f 72/45/169 66/44/169 107/59/169
f 66/44/170 36/60/170 107/59/170
f 71/42/171 110/66/171 41/63/171
f 71/42/172 65/41/172 110/66/172
f 65/41/173 35/67/173 110/66/173
f 70/39/17 113/73/17 40/70/17
f 70/39/17 64/38/17 113/73/17
f 64/38/17 34/74/17 113/73/17
f 68/36/174 116/80/174 38/77/174
f 68/36/174 63/35/174 116/80/174
f 63/35/174 33/81/174 116/80/174
f 84/33/175 119/87/175 24/84/175
f 84/33/176 61/28/176 119/87/176
f 61/28/177 31/88/177 119/87/177
f 92/32/178 122/94/178 32/91/178
f 92/32/14 59/25/14 122/94/14
f 59/25/14 29/95/14 122/94/14
f 90/31/13 125/101/13 30/98/13
f 90/31/13 57/22/13 125/101/13
f 57/22/13 27/102/13 125/101/13
f 88/30/12 128/108/12 28/105/12
f 88/30/12 55/19/12 128/108/12
f 55/19/12 25/109/12 128/108/12
f 86/29/11 131/115/11 26/112/11
f 86/29/11 53/16/11 131/115/11
f 53/16/11 23/116/11 131/115/11
f 61/28/10 134/120/10 31/88/10
f 61/28/10 52/27/10 134/120/10
f 52/27/10 22/121/10 134/120/10
f 59/25/9 137/125/9 29/95/9
f 59/25/9 51/24/9 137/125/9
f 51/24/9 21/126/9 137/125/9
f 57/22/8 140/130/8 27/102/8
f 57/22/8 49/21/8 140/130/8
f 49/21/8 19/131/8 140/130/8
f 55/19/7 143/135/7 25/109/7
f 55/19/7 45/18/7 143/135/7
f 45/18/7 15/136/7 143/135/7
f 53/16/179 146/140/179 23/116/179
f 53/16/180 46/6/180 146/140/180
f 46/6/181 16/141/181 146/140/181
f 77/15/5 149/147/5 17/144/5
f 77/15/5 50/14/5 149/147/5
f 50/14/5 20/148/5 149/147/5
f 50/12/4 152/154/4 20/151/4
f 50/12/4 48/11/4 152/154/4
f 48/11/4 18/155/4 152/154/4
f 48/9/3 155/161/3 18/158/3
f 48/9/3 43/8/3 155/161/3
f 43/8/3 13/162/3 155/161/3
f 46/6/2 158/166/2 16/141/2
f 46/6/2 44/5/2 158/166/2
f 44/5/2 14/167/2 158/166/2
f 43/3/1 161/173/1 13/170/1
f 43/3/1 74/2/1 161/173/1
f 74/2/1 14/174/1 161/173/1
