# Blender 4.1.1
# www.blender.org
mtllib star.mtl
o Circle
v -0.143133 1.302105 0.000000
v 0.143133 1.302105 0.000000
v -0.052390 1.404176 0.000000
v 0.052390 1.404176 0.000000
v -1.282606 0.266246 0.000000
v -1.194145 0.538500 0.000000
v -1.351640 0.384088 0.000000
v -1.319261 0.483740 0.000000
v -0.649562 -1.137557 -0.000000
v -0.881155 -0.969294 -0.000000
v -0.782969 -1.166796 -0.000000
v -0.867738 -1.105208 -0.000000
v 0.881155 -0.969294 -0.000000
v 0.649562 -1.137557 -0.000000
v 0.867738 -1.105208 -0.000000
v 0.782969 -1.166796 -0.000000
v 1.194145 0.538500 0.000000
v 1.282606 0.266246 0.000000
v 1.319261 0.483740 0.000000
v 1.351640 0.384088 0.000000
v -0.647258 0.626786 0.000000
v -0.396095 0.809266 0.000000
v -0.550751 0.661381 0.000000
v -0.458819 0.728173 0.000000
v -0.796122 -0.421891 -0.000000
v -0.892058 -0.126632 -0.000000
v -0.799202 -0.319417 -0.000000
v -0.834317 -0.211345 -0.000000
v 0.155227 -0.887529 -0.000000
v -0.155227 -0.887529 -0.000000
v 0.056817 -0.858791 -0.000000
v -0.056817 -0.858791 -0.000000
v 0.892058 -0.126632 -0.000000
v 0.796122 -0.421891 -0.000000
v 0.834317 -0.211345 -0.000000
v 0.799202 -0.319417 -0.000000
v 0.396095 0.809266 0.000000
v 0.647258 0.626786 0.000000
v 0.458819 0.728173 0.000000
v 0.550751 0.661381 0.000000
v -0.143133 0.461093 0.217122
v -0.394295 0.278613 0.217122
v -0.482756 0.006358 0.217122
v -0.386820 -0.288901 0.217121
v -0.155227 -0.457163 0.217121
v 0.155227 -0.457163 0.217121
v 0.386820 -0.288901 0.217121
v 0.482756 0.006358 0.217121
v 0.394295 0.278613 0.217121
v 0.143133 0.461093 0.217121
v -0.219581 0.398827 0.206341
v -0.052229 0.467046 0.240180
v -0.081384 0.257269 0.268311
v -0.428047 0.193998 0.240180
v -0.311453 0.332078 0.206341
v -0.219528 0.156901 0.268311
v -0.447161 -0.085589 0.206341
v -0.460327 0.094652 0.240180
v -0.269826 0.002100 0.268311
v -0.316777 -0.347149 0.240180
v -0.412069 -0.193592 0.206341
v -0.217060 -0.160298 0.268311
v -0.056780 -0.451724 0.206341
v -0.232268 -0.408547 0.240180
v -0.085378 -0.255971 0.268311
v 0.232268 -0.408547 0.240180
v 0.056780 -0.451724 0.206341
v 0.085378 -0.255971 0.268311
v 0.412069 -0.193592 0.206341
v 0.316777 -0.347149 0.240180
v 0.217060 -0.160298 0.268311
v 0.460327 0.094652 0.240180
v 0.447161 -0.085589 0.206341
v 0.269826 0.002100 0.268311
v 0.311453 0.332078 0.206341
v 0.428047 0.193998 0.240180
v 0.219528 0.156901 0.268311
v 0.052229 0.467046 0.240180
v 0.219581 0.398827 0.206341
v 0.081384 0.257269 0.268311
v 0.143133 1.302105 0.000000
v -0.143133 1.302105 0.000000
v 0.052390 1.404176 0.000000
v -0.052390 1.404176 0.000000
v 1.282606 0.266246 -0.000000
v 1.194145 0.538500 0.000000
v 1.351640 0.384088 -0.000000
v 1.319261 0.483740 0.000000
v 0.649562 -1.137557 -0.000000
v 0.881155 -0.969294 -0.000000
v 0.782969 -1.166796 -0.000000
v 0.867738 -1.105208 -0.000000
v -0.881155 -0.969294 -0.000000
v -0.649562 -1.137557 -0.000000
v -0.867738 -1.105208 -0.000000
v -0.782969 -1.166796 -0.000000
v -1.194145 0.538500 0.000000
v -1.282606 0.266246 0.000000
v -1.319261 0.483740 0.000000
v -1.351640 0.384088 0.000000
v 0.647258 0.626786 0.000000
v 0.396095 0.809266 0.000000
v 0.550751 0.661381 0.000000
v 0.458819 0.728173 0.000000
v 0.796122 -0.421891 -0.000000
v 0.892058 -0.126632 -0.000000
v 0.799202 -0.319417 -0.000000
v 0.834317 -0.211345 -0.000000
v -0.155227 -0.887529 -0.000000
v 0.155227 -0.887529 -0.000000
v -0.056817 -0.858791 -0.000000
v 0.056817 -0.858791 -0.000000
v -0.892058 -0.126632 0.000000
v -0.796122 -0.421891 -0.000000
v -0.834317 -0.211345 0.000000
v -0.799202 -0.319417 -0.000000
v -0.396095 0.809266 0.000000
v -0.647258 0.626786 0.000000
v -0.458819 0.728173 0.000000
v -0.550751 0.661381 0.000000
v 0.143133 0.461093 -0.217121
v 0.394295 0.278613 -0.217121
v 0.482756 0.006358 -0.217122
v 0.386820 -0.288901 -0.217122
v 0.155227 -0.457163 -0.217122
v -0.155227 -0.457163 -0.217122
v -0.386820 -0.288901 -0.217122
v -0.482756 0.006358 -0.217121
v -0.394295 0.278613 -0.217121
v -0.143133 0.461093 -0.217121
v 0.219581 0.398827 -0.206341
v 0.052229 0.467046 -0.240179
v 0.081384 0.257269 -0.268311
v 0.428047 0.193998 -0.240180
v 0.311453 0.332078 -0.206341
v 0.219528 0.156901 -0.268311
v 0.447161 -0.085589 -0.206341
v 0.460327 0.094652 -0.240180
v 0.269826 0.002100 -0.268311
v 0.316777 -0.347148 -0.240180
v 0.412069 -0.193592 -0.206341
v 0.217060 -0.160298 -0.268311
v 0.056780 -0.451724 -0.206341
v 0.232268 -0.408547 -0.240180
v 0.085378 -0.255971 -0.268311
v -0.232268 -0.408547 -0.240180
v -0.056780 -0.451724 -0.206341
v -0.085378 -0.255971 -0.268311
v -0.412069 -0.193592 -0.206341
v -0.316777 -0.347148 -0.240180
v -0.217060 -0.160298 -0.268311
v -0.460327 0.094652 -0.240179
v -0.447161 -0.085589 -0.206341
v -0.269826 0.002100 -0.268311
v -0.311453 0.332078 -0.206341
v -0.428047 0.193998 -0.240179
v -0.219528 0.156901 -0.268311
v -0.052229 0.467046 -0.240179
v -0.219581 0.398827 -0.206341
v -0.081384 0.257269 -0.268311
vn -0.2946 0.2381 0.9255
vn 0.2946 0.2381 0.9255
vn -0.0861 0.2476 0.9650
vn 0.0861 0.2476 0.9650
vn -0.3175 -0.2066 0.9255
vn -0.1354 0.3538 0.9255
vn -0.2621 -0.0054 0.9650
vn -0.2089 0.1584 0.9650
vn 0.0984 -0.3658 0.9255
vn -0.3783 -0.0195 0.9255
vn -0.0759 -0.2509 0.9650
vn -0.2152 -0.1497 0.9650
vn 0.3783 -0.0195 0.9255
vn -0.0984 -0.3658 0.9255
vn 0.2152 -0.1497 0.9650
vn 0.0759 -0.2509 0.9650
vn 0.1354 0.3538 0.9255
vn 0.3175 -0.2066 0.9255
vn 0.2089 0.1584 0.9650
vn 0.2621 -0.0054 0.9650
vn -0.1115 0.4666 0.8774
vn -0.4093 0.2503 0.8774
vn -0.2099 0.4045 0.8901
vn -0.3198 0.3246 0.8901
vn -0.4783 0.0381 0.8774
vn -0.3645 -0.3120 0.8774
vn -0.4496 -0.0746 0.8901
vn -0.4076 -0.2039 0.8901
vn -0.1841 -0.4431 0.8774
vn 0.1841 -0.4431 0.8774
vn -0.0679 -0.4506 0.8901
vn 0.0679 -0.4506 0.8901
vn 0.3645 -0.3120 0.8774
vn 0.4783 0.0381 0.8774
vn 0.4076 -0.2039 0.8901
vn 0.4496 -0.0746 0.8901
vn 0.4093 0.2503 0.8774
vn 0.1115 0.4666 0.8774
vn 0.3198 0.3246 0.8901
vn 0.2099 0.4045 0.8901
vn -0.3048 0.2198 0.9267
vn -0.1148 0.3578 0.9267
vn -0.3032 -0.2220 0.9267
vn -0.3758 0.0014 0.9267
vn 0.1174 -0.3570 0.9267
vn -0.1174 -0.3570 0.9267
vn 0.3758 0.0014 0.9267
vn 0.3032 -0.2220 0.9267
vn 0.1148 0.3578 0.9267
vn 0.3048 0.2198 0.9267
vn -0.2663 0.2677 0.9260
vn -0.1250 0.1971 0.9724
vn -0.0784 0.1103 0.9908
vn -0.1489 0.1798 0.9724
vn -0.1723 0.3360 0.9260
vn -0.0807 0.1086 0.9908
vn -0.3369 -0.1706 0.9260
vn -0.2261 -0.0580 0.9724
vn -0.1291 -0.0405 0.9908
vn -0.2170 -0.0860 0.9724
vn -0.3728 -0.0600 0.9260
vn -0.1283 -0.0432 0.9908
vn 0.0581 -0.3731 0.9260
vn -0.0147 -0.2330 0.9724
vn -0.0014 -0.1353 0.9908
vn 0.0147 -0.2330 0.9724
vn -0.0581 -0.3731 0.9260
vn 0.0014 -0.1353 0.9908
vn 0.3728 -0.0600 0.9260
vn 0.2170 -0.0860 0.9724
vn 0.1283 -0.0432 0.9908
vn 0.2261 -0.0580 0.9724
vn 0.3369 -0.1706 0.9260
vn 0.1291 -0.0405 0.9908
vn 0.1723 0.3360 0.9260
vn 0.1489 0.1798 0.9724
vn 0.0807 0.1086 0.9908
vn 0.1250 0.1971 0.9724
vn 0.2663 0.2677 0.9260
vn 0.0784 0.1103 0.9908
vn 0.2946 0.2381 -0.9255
vn -0.2946 0.2381 -0.9255
vn 0.0861 0.2476 -0.9650
vn -0.0861 0.2476 -0.9650
vn 0.3175 -0.2066 -0.9255
vn 0.1354 0.3538 -0.9255
vn 0.2621 -0.0054 -0.9650
vn 0.2089 0.1584 -0.9650
vn -0.0984 -0.3658 -0.9255
vn 0.3783 -0.0195 -0.9255
vn 0.0759 -0.2509 -0.9650
vn 0.2152 -0.1497 -0.9650
vn -0.3783 -0.0195 -0.9255
vn 0.0984 -0.3658 -0.9255
vn -0.2152 -0.1497 -0.9650
vn -0.0759 -0.2509 -0.9650
vn -0.1354 0.3538 -0.9255
vn -0.3175 -0.2066 -0.9255
vn -0.2089 0.1584 -0.9650
vn -0.2621 -0.0054 -0.9650
vn 0.1115 0.4666 -0.8774
vn 0.4093 0.2503 -0.8774
vn 0.2099 0.4045 -0.8901
vn 0.3198 0.3246 -0.8901
vn 0.4783 0.0381 -0.8774
vn 0.3645 -0.3120 -0.8774
vn 0.4496 -0.0746 -0.8901
vn 0.4076 -0.2039 -0.8901
vn 0.1841 -0.4431 -0.8774
vn -0.1841 -0.4431 -0.8774
vn 0.0679 -0.4506 -0.8901
vn -0.0679 -0.4506 -0.8901
vn -0.3645 -0.3120 -0.8774
vn -0.4783 0.0381 -0.8774
vn -0.4076 -0.2039 -0.8901
vn -0.4496 -0.0746 -0.8901
vn -0.4093 0.2503 -0.8774
vn -0.1115 0.4666 -0.8774
vn -0.3198 0.3246 -0.8901
vn -0.2099 0.4045 -0.8901
vn 0.3048 0.2198 -0.9267
vn 0.1148 0.3578 -0.9267
vn 0.3032 -0.2220 -0.9267
vn 0.3758 0.0014 -0.9267
vn -0.1174 -0.3570 -0.9267
vn 0.1174 -0.3570 -0.9267
vn -0.3758 0.0014 -0.9267
vn -0.3032 -0.2220 -0.9267
vn -0.1148 0.3578 -0.9267
vn -0.3048 0.2198 -0.9267
vn 0.2663 0.2677 -0.9260
vn 0.1250 0.1971 -0.9724
vn 0.0784 0.1103 -0.9908
vn 0.1489 0.1798 -0.9724
vn 0.1723 0.3360 -0.9260
vn 0.0807 0.1086 -0.9908
vn 0.3369 -0.1706 -0.9260
vn 0.2261 -0.0580 -0.9724
vn 0.1291 -0.0405 -0.9908
vn 0.2170 -0.0860 -0.9724
vn 0.3728 -0.0600 -0.9260
vn 0.1283 -0.0432 -0.9908
vn -0.0581 -0.3731 -0.9260
vn 0.0147 -0.2330 -0.9724
vn 0.0014 -0.1353 -0.9908
vn -0.0147 -0.2330 -0.9724
vn 0.0581 -0.3731 -0.9260
vn -0.0014 -0.1353 -0.9908
vn -0.3728 -0.0600 -0.9260
vn -0.2170 -0.0860 -0.9724
vn -0.1283 -0.0432 -0.9908
vn -0.2261 -0.0580 -0.9724
vn -0.3369 -0.1706 -0.9260
vn -0.1291 -0.0405 -0.9908
vn -0.1723 0.3360 -0.9260
vn -0.1489 0.1798 -0.9724
vn -0.0807 0.1086 -0.9908
vn -0.1250 0.1971 -0.9724
vn -0.2663 0.2677 -0.9260
vn -0.0784 0.1103 -0.9908
vt 0.000000 0.000000
s 1
f 9/1/9 30/1/30 45/1/45
f 21/1/21 6/1/6 42/1/42
f 13/1/13 34/1/34 47/1/47
f 25/1/25 10/1/10 44/1/44
f 17/1/17 38/1/38 49/1/49
f 29/1/29 14/1/14 46/1/46
f 81/1/81 102/1/102 121/1/121
f 33/1/33 18/1/18 48/1/48
f 5/1/5 26/1/26 43/1/43
f 37/1/37 2/1/2 50/1/50
f 89/1/89 110/1/110 125/1/125
f 101/1/101 86/1/86 122/1/122
f 93/1/93 114/1/114 127/1/127
f 105/1/105 90/1/90 124/1/124
f 97/1/97 118/1/118 129/1/129
f 109/1/109 94/1/94 126/1/126
f 113/1/113 98/1/98 128/1/128
f 85/1/85 106/1/106 123/1/123
f 117/1/117 82/1/82 130/1/130
f 41/1/41 51/1/51 53/1/53 52/1/52
f 51/1/51 55/1/55 56/1/56 53/1/53
f 42/1/42 54/1/54 56/1/56 55/1/55
f 54/1/54 58/1/58 59/1/59 56/1/56
f 43/1/43 57/1/57 59/1/59 58/1/58
f 57/1/57 61/1/61 62/1/62 59/1/59
f 44/1/44 60/1/60 62/1/62 61/1/61
f 60/1/60 64/1/64 65/1/65 62/1/62
f 45/1/45 63/1/63 65/1/65 64/1/64
f 63/1/63 67/1/67 68/1/68 65/1/65
f 46/1/46 66/1/66 68/1/68 67/1/67
f 66/1/66 70/1/70 71/1/71 68/1/68
f 47/1/47 69/1/69 71/1/71 70/1/70
f 69/1/69 73/1/73 74/1/74 71/1/71
f 48/1/48 72/1/72 74/1/74 73/1/73
f 72/1/72 76/1/76 77/1/77 74/1/74
f 49/1/49 75/1/75 77/1/77 76/1/76
f 75/1/75 79/1/79 80/1/80 77/1/77
f 50/1/50 78/1/78 80/1/80 79/1/79
f 78/1/78 52/1/52 53/1/53 80/1/80
f 53/1/53 56/1/56 59/1/59 62/1/62 65/1/65 68/1/68 71/1/71 74/1/74 77/1/77 80/1/80
f 121/1/121 131/1/131 133/1/133 132/1/132
f 131/1/131 135/1/135 136/1/136 133/1/133
f 122/1/122 134/1/134 136/1/136 135/1/135
f 134/1/134 138/1/138 139/1/139 136/1/136
f 123/1/123 137/1/137 139/1/139 138/1/138
f 137/1/137 141/1/141 142/1/142 139/1/139
f 124/1/124 140/1/140 142/1/142 141/1/141
f 140/1/140 144/1/144 145/1/145 142/1/142
f 125/1/125 143/1/143 145/1/145 144/1/144
f 143/1/143 147/1/147 148/1/148 145/1/145
f 126/1/126 146/1/146 148/1/148 147/1/147
f 146/1/146 150/1/150 151/1/151 148/1/148
f 127/1/127 149/1/149 151/1/151 150/1/150
f 149/1/149 153/1/153 154/1/154 151/1/151
f 128/1/128 152/1/152 154/1/154 153/1/153
f 152/1/152 156/1/156 157/1/157 154/1/154
f 129/1/129 155/1/155 157/1/157 156/1/156
f 155/1/155 159/1/159 160/1/160 157/1/157
f 130/1/130 158/1/158 160/1/160 159/1/159
f 158/1/158 132/1/132 133/1/133 160/1/160
f 133/1/133 136/1/136 139/1/139 142/1/142 145/1/145 148/1/148 151/1/151 154/1/154 157/1/157 160/1/160
f 41/1/41 22/1/22 24/1/24 51/1/51
f 51/1/51 24/1/24 23/1/23 55/1/55
f 55/1/55 23/1/23 21/1/21 42/1/42
f 5/1/5 43/1/43 58/1/58 7/1/7
f 7/1/7 58/1/58 54/1/54 8/1/8
f 8/1/8 54/1/54 42/1/42 6/1/6
f 25/1/25 44/1/44 61/1/61 27/1/27
f 27/1/27 61/1/61 57/1/57 28/1/28
f 28/1/28 57/1/57 43/1/43 26/1/26
f 9/1/9 45/1/45 64/1/64 11/1/11
f 11/1/11 64/1/64 60/1/60 12/1/12
f 12/1/12 60/1/60 44/1/44 10/1/10
f 29/1/29 46/1/46 67/1/67 31/1/31
f 31/1/31 67/1/67 63/1/63 32/1/32
f 32/1/32 63/1/63 45/1/45 30/1/30
f 13/1/13 47/1/47 70/1/70 15/1/15
f 15/1/15 70/1/70 66/1/66 16/1/16
f 16/1/16 66/1/66 46/1/46 14/1/14
f 33/1/33 48/1/48 73/1/73 35/1/35
f 35/1/35 73/1/73 69/1/69 36/1/36
f 36/1/36 69/1/69 47/1/47 34/1/34
f 17/1/17 49/1/49 76/1/76 19/1/19
f 19/1/19 76/1/76 72/1/72 20/1/20
f 20/1/20 72/1/72 48/1/48 18/1/18
f 37/1/37 50/1/50 79/1/79 39/1/39
f 39/1/39 79/1/79 75/1/75 40/1/40
f 40/1/40 75/1/75 49/1/49 38/1/38
f 1/1/1 41/1/41 52/1/52 3/1/3
f 3/1/3 52/1/52 78/1/78 4/1/4
f 4/1/4 78/1/78 50/1/50 2/1/2
f 121/1/121 102/1/102 104/1/104 131/1/131
f 131/1/131 104/1/104 103/1/103 135/1/135
f 135/1/135 103/1/103 101/1/101 122/1/122
f 85/1/85 123/1/123 138/1/138 87/1/87
f 87/1/87 138/1/138 134/1/134 88/1/88
f 88/1/88 134/1/134 122/1/122 86/1/86
f 105/1/105 124/1/124 141/1/141 107/1/107
f 107/1/107 141/1/141 137/1/137 108/1/108
f 108/1/108 137/1/137 123/1/123 106/1/106
f 89/1/89 125/1/125 144/1/144 91/1/91
f 91/1/91 144/1/144 140/1/140 92/1/92
f 92/1/92 140/1/140 124/1/124 90/1/90
f 109/1/109 126/1/126 147/1/147 111/1/111
f 111/1/111 147/1/147 143/1/143 112/1/112
f 112/1/112 143/1/143 125/1/125 110/1/110
f 93/1/93 127/1/127 150/1/150 95/1/95
f 95/1/95 150/1/150 146/1/146 96/1/96
f 96/1/96 146/1/146 126/1/126 94/1/94
f 113/1/113 128/1/128 153/1/153 115/1/115
f 115/1/115 153/1/153 149/1/149 116/1/116
f 116/1/116 149/1/149 127/1/127 114/1/114
f 97/1/97 129/1/129 156/1/156 99/1/99
f 99/1/99 156/1/156 152/1/152 100/1/100
f 100/1/100 152/1/152 128/1/128 98/1/98
f 117/1/117 130/1/130 159/1/159 119/1/119
f 119/1/119 159/1/159 155/1/155 120/1/120
f 120/1/120 155/1/155 129/1/129 118/1/118
f 81/1/81 121/1/121 132/1/132 83/1/83
f 83/1/83 132/1/132 158/1/158 84/1/84
f 84/1/84 158/1/158 130/1/130 82/1/82
f 1/1/1 22/1/22 41/1/41
